<?xml version="1.0" encoding="UTF-8"?><svg xmlns="http://www.w3.org/2000/svg" xmlns:xlink="http://www.w3.org/1999/xlink" width="375" zoomAndPan="magnify" viewBox="0 0 375 374.999991" height="374.999991" preserveAspectRatio="xMidYMid meet" version="1.0"><defs><filter x="0%" y="0%" width="100%" xmlns:xlink="http://www.w3.org/1999/xlink" xlink:type="simple" xlink:actuate="onLoad" height="100%" id="filter-remove-color" xlink:show="other"><feColorMatrix values="0 0 0 0 1 0 0 0 0 1 0 0 0 0 1 0 0 0 1 0" color-interpolation-filters="sRGB"/></filter><mask id="mask-0"><g filter="url(#filter-remove-color)"><rect x="-37.5" width="450" fill="rgb(0%, 0%, 0%)" y="-37.499999" height="449.999989" fill-opacity="0.9686"/></g></mask><clipPath id="clip-0"><path d="M 0.640625 12 L 132 12 L 132 163 L 0.640625 163 Z M 0.640625 12 " clip-rule="nonzero"/></clipPath><clipPath id="clip-1"><rect x="0" width="215" y="0" height="176"/></clipPath></defs><g mask="url(#mask-0)"><g transform="matrix(1, 0, 0, 1, 80, 95)"><g id="source-7" clip-path="url(#clip-1)"><g clip-path="url(#clip-0)"><path stroke-linecap="butt" transform="matrix(0.733865, -0.154733, 0.154733, 0.733865, 4.509852, 27.252021)" fill="none" stroke-linejoin="miter" d="M 35.624685 64.266119 C 35.392087 58.250165 35.466556 52.469286 35.859112 46.845964 C 36.014625 42.700319 35.07793 40.048987 33.047985 38.795938 C 31.016136 37.627653 28.279984 36.997515 25.000738 36.923546 C 22.653345 36.92363 20.001156 37.157528 17.108551 37.622846 C 14.219967 38.094335 11.79886 38.797461 9.763902 39.890731 C 8.049274 40.827981 6.639715 42.388453 5.624841 44.500554 C 4.373478 47.153628 3.439986 50.672151 2.810149 55.047803 C 2.033685 59.967407 1.796225 66.294109 2.033391 74.030306 C 2.185792 81.764598 2.810766 89.731603 3.752169 98.015499 C 4.688476 106.298321 5.861178 114.343552 7.424269 122.077205 C 8.987359 129.810857 10.702975 136.139501 12.736377 140.986201 C 13.673656 143.483293 14.922851 146.141963 16.486696 148.797779 C 18.045445 151.45252 20.236412 153.330356 22.891145 154.422383 C 24.297595 155.123466 26.716734 155.590951 30.158753 155.826988 C 33.516009 156.061122 36.875261 155.907109 40.311327 155.439276 C 43.673897 154.966591 46.564232 154.032384 49.06415 152.627291 C 51.4844 151.221369 52.578359 149.264337 52.264793 146.611319 C 52.108839 145.205142 51.63931 143.796723 51.014467 142.392816 C 50.390699 140.983813 49.765856 139.579906 49.295497 138.251155 C 46.014068 130.437307 43.282918 121.376834 41.093516 110.908254 C 41.639275 112.157092 42.346028 113.248252 43.123424 114.029614 C 44.844334 116.218199 47.970282 119.341774 52.344295 123.564186 C 56.719382 127.781502 61.408044 132.001061 66.486512 136.06328 C 71.564979 140.125499 76.481595 143.6426 81.328124 146.532795 C 86.094985 149.422161 89.844928 150.59607 92.579027 150.049426 C 95.393039 149.578182 99.531572 146.687527 105.080466 141.374267 C 110.624263 136.059932 111.563746 131.376969 107.967101 127.153454 C 106.327054 125.439684 103.279607 122.625417 98.749113 118.715996 C 94.217544 114.811671 89.299241 110.671443 83.908366 106.298502 C 78.518566 101.920465 73.201433 97.626947 67.970385 93.404808 C 62.732336 89.266359 58.595942 86.062806 55.545669 83.716354 C 59.922876 78.406221 64.531994 73.485649 69.452691 68.955465 C 74.374462 64.420185 80.077039 60.044213 86.48585 55.827793 C 87.575936 55.126137 88.672193 54.420458 89.922444 53.640792 C 91.093027 52.860296 92.189868 52.000378 93.12286 50.983488 C 96.562836 47.391968 95.626331 43.250279 90.31227 38.563518 C 84.998209 33.876757 81.092312 31.296671 78.439266 30.827772 C 76.094115 30.514281 73.594508 30.908099 71.095173 32.158953 C 68.591817 33.403636 66.32639 34.655902 64.294286 36.063822 C 59.375559 39.423394 54.451763 43.564357 49.453669 48.5626 C 44.455575 53.560844 39.844215 58.794992 35.624685 64.266119 Z M 35.624685 64.266119 " stroke="rgb(83.918762%, 0%, 0%)" stroke-width="6" stroke-opacity="1" stroke-miterlimit="4"/></g><path stroke-linecap="butt" transform="matrix(0.733865, 0.154733, -0.154733, 0.733865, 122.874216, 8.8291)" fill="none" stroke-linejoin="miter" d="M 35.625164 64.265802 C 35.389947 58.252675 35.468643 52.466116 35.858551 46.842822 C 36.012592 42.701105 35.079901 40.044714 33.044359 38.797205 C 31.013669 37.623193 28.279815 37.001977 24.999985 36.921707 C 22.657688 36.920548 19.998133 37.156614 17.11118 37.626925 C 14.218056 38.093215 11.795234 38.795682 9.76363 39.889395 C 8.045018 40.826627 6.639369 42.389841 5.625522 44.498541 C 4.376326 47.157212 3.435336 50.67175 2.813819 55.045104 C 2.031525 59.968673 1.796074 66.299276 2.03182 74.031572 C 2.187897 81.764697 2.814277 89.734 3.751378 98.01571 C 4.688478 106.29742 5.858074 114.343809 7.419744 122.078649 C 8.986511 129.812413 10.704135 136.141076 12.73622 140.982235 C 13.673424 143.483312 14.920765 146.142557 16.486777 148.798485 C 18.047693 151.455487 20.235788 153.325541 22.888778 154.421572 C 24.29861 155.125008 26.718304 155.594227 30.158054 155.827078 C 33.513039 156.061834 36.87622 155.906293 40.31173 155.437423 C 43.672669 154.968307 46.561893 154.029106 49.060143 152.624088 C 51.483822 151.218824 52.577921 149.263535 52.263262 146.609905 C 52.110737 145.204896 51.638466 143.798107 51.017052 142.390828 C 50.390541 140.984623 49.764031 139.578418 49.297685 138.250223 C 46.016017 130.436243 43.280108 121.373426 41.094471 110.906456 C 41.639655 112.154155 42.344666 113.251052 43.126028 114.028448 C 44.844528 116.221073 47.967028 119.341925 52.343096 123.561114 C 56.719164 127.780303 61.403711 131.998325 66.487088 136.063058 C 71.564294 140.123768 76.48468 143.642677 81.331106 146.533115 C 86.091693 149.42036 89.841552 150.593844 92.579608 150.048471 C 95.391989 149.577914 99.530626 146.687936 105.08028 141.376633 C 110.623764 136.061309 111.562785 131.376159 107.969182 127.156998 C 106.329154 125.437528 103.282393 122.625401 98.749231 118.721445 C 94.220092 114.811319 89.296296 110.670357 83.908369 106.297238 C 78.514271 101.920098 73.201744 97.626893 67.96864 93.407431 C 62.736365 89.267636 58.59559 86.063405 55.546559 83.720167 C 59.919432 78.406812 64.529283 73.485286 69.455781 68.954761 C 74.376109 64.420215 80.075463 60.046107 86.483293 55.826021 C 87.576168 55.127181 88.673065 54.42217 89.924447 53.642004 C 91.095086 52.857571 92.186302 51.999395 93.126717 50.981393 C 96.564489 47.392858 95.626512 43.247184 90.310914 38.560736 C 85.000413 33.873213 81.092933 31.295795 78.439331 30.827989 C 76.094792 30.513256 73.59623 30.906998 71.0923 32.158852 C 68.592391 33.404534 66.327463 34.6539 64.298102 36.061189 C 59.374731 39.420028 54.451332 43.561331 49.454163 48.564522 C 44.450823 53.56369 39.843214 58.798791 35.625164 64.265802 Z M 35.625164 64.265802 " stroke="rgb(83.918762%, 0%, 0%)" stroke-width="6" stroke-opacity="1" stroke-miterlimit="4"/></g></g></g></svg>